<?xml version="1.0" standalone="no"?>
<!DOCTYPE svg PUBLIC "-//W3C//DTD SVG 20010904//EN"
 "http://www.w3.org/TR/2001/REC-SVG-20010904/DTD/svg10.dtd">
<svg version="1.0" xmlns="http://www.w3.org/2000/svg"
 width="1024.000000pt" height="1024.000000pt" viewBox="0 0 1024.000000 1024.000000"
 preserveAspectRatio="xMidYMid meet">
<metadata>
Created by potrace 1.14, written by Peter Selinger 2001-2017
</metadata>
<g transform="translate(0.000000,1024.000000) scale(0.100000,-0.100000)"
fill="#000000" stroke="none">
<path d="M1715 9311 c3 -42 8 -89 9 -106 9 -89 18 -174 21 -205 4 -40 14 -133
20 -200 12 -128 16 -168 20 -200 2 -19 7 -62 10 -95 3 -33 8 -80 10 -105 3
-25 7 -70 10 -100 3 -30 7 -71 10 -90 2 -19 7 -66 10 -105 3 -38 8 -86 10
-105 2 -19 7 -64 10 -100 3 -36 8 -76 10 -90 2 -14 7 -61 10 -105 4 -44 8 -91
10 -105 1 -14 6 -59 9 -100 4 -41 9 -86 11 -100 2 -14 6 -56 10 -95 3 -38 8
-83 10 -100 2 -16 7 -61 10 -100 3 -38 8 -81 10 -95 2 -14 7 -61 10 -105 4
-44 9 -91 10 -105 1 -14 5 -56 9 -95 4 -38 8 -86 11 -105 4 -35 13 -122 20
-195 7 -81 16 -171 20 -205 2 -19 7 -64 10 -100 12 -123 14 -145 19 -195 3
-27 8 -75 11 -105 7 -71 14 -134 20 -190 3 -25 7 -72 10 -105 3 -33 7 -80 10
-105 8 -78 14 -133 21 -205 8 -90 10 -106 18 -185 7 -67 11 -102 21 -205 3
-33 8 -78 10 -100 2 -22 7 -71 10 -110 7 -73 9 -93 19 -185 3 -30 8 -80 11
-110 3 -30 7 -75 10 -100 2 -25 7 -70 10 -100 3 -30 8 -71 10 -90 2 -19 7 -69
10 -110 3 -41 8 -86 10 -100 2 -14 6 -56 10 -95 3 -38 8 -83 10 -100 2 -16 7
-61 10 -100 4 -38 8 -86 10 -105 4 -33 11 -108 21 -210 2 -25 6 -65 9 -90 3
-25 7 -72 10 -105 3 -33 8 -76 10 -95 3 -19 7 -64 10 -100 3 -36 7 -81 10
-100 2 -19 7 -64 10 -100 4 -36 8 -78 10 -95 3 -27 11 -110 20 -205 10 -103
17 -169 20 -200 2 -19 7 -66 10 -105 3 -38 8 -81 10 -95 2 -14 7 -61 11 -105
3 -44 7 -87 9 -95 2 -8 6 -49 9 -90 4 -41 9 -91 11 -110 2 -19 7 -66 10 -105
4 -38 8 -81 10 -95 2 -14 7 -56 10 -95 3 -38 8 -83 10 -100 2 -16 7 -64 10
-105 4 -41 9 -86 10 -100 2 -14 4 -30 4 -36 1 -7 690 -10 2348 -10 2339 1
2346 1 2348 21 1 11 5 49 9 85 4 36 9 88 12 115 2 28 7 75 10 105 2 30 7 71 9
90 3 19 7 67 11 105 3 39 8 84 10 100 2 17 6 66 10 110 3 44 8 82 9 85 2 3 6
46 10 95 4 50 9 97 10 106 2 9 6 52 10 95 4 43 8 90 10 104 2 14 7 61 10 105
3 44 8 91 10 105 4 21 11 84 30 285 2 22 6 69 10 105 6 70 13 132 20 195 3 22
7 69 10 105 3 36 10 103 15 150 5 47 14 135 20 195 6 61 13 130 15 155 3 25 7
74 10 110 3 36 8 76 10 90 2 14 7 61 11 105 3 44 8 87 9 96 2 8 6 53 10 100 4
46 8 91 10 99 2 8 6 53 10 100 4 47 8 92 10 100 2 8 6 49 9 90 8 88 12 130 26
263 5 53 15 141 20 195 11 109 16 158 25 252 4 36 8 81 10 100 2 19 7 64 10
100 3 36 8 81 10 100 2 19 7 64 10 100 3 36 7 81 10 100 3 19 7 67 10 105 3
39 10 106 15 150 5 44 12 112 15 150 3 39 8 81 10 95 2 14 7 61 10 105 4 44 8
87 10 95 2 8 7 53 10 100 4 47 8 92 10 100 2 9 6 56 10 106 4 49 9 97 10 106
2 9 6 47 10 85 3 37 8 82 10 98 2 17 7 66 10 110 4 44 8 87 10 95 2 8 7 56 11
105 3 50 8 92 9 95 2 3 6 46 10 95 4 50 8 101 10 114 2 13 7 58 10 100 4 42 8
83 10 91 2 8 7 51 10 95 3 44 8 91 10 105 2 14 7 59 10 100 4 41 8 86 10 100
2 14 7 59 10 100 4 41 8 89 10 105 3 17 7 59 10 95 3 36 8 79 10 95 2 17 6 66
10 110 3 44 8 91 10 105 3 14 9 75 15 135 6 61 13 126 15 145 2 19 6 71 10
114 4 43 8 86 10 95 4 24 19 174 18 189 0 6 -1 16 -2 20 0 5 -1439 8 -3197 8
l-3196 0 7 -75z m5438 -780 c15 -1 17 -7 13 -38 -3 -21 -8 -65 -11 -98 -6 -74
-14 -156 -20 -215 -9 -86 -16 -162 -30 -325 -6 -68 -15 -164 -20 -215 -2 -19
-6 -66 -10 -105 -3 -38 -8 -88 -10 -110 -6 -55 -15 -160 -20 -218 -2 -27 -5
-50 -7 -51 -14 -11 -342 -125 -408 -142 -8 -2 -58 -15 -110 -29 -115 -30 -315
-71 -390 -80 -30 -3 -62 -8 -70 -10 -71 -17 -375 -25 -516 -12 -184 16 -387
72 -535 146 -116 59 -211 127 -329 236 -280 260 -562 371 -932 368 -163 -1
-287 -19 -481 -71 l-99 -26 6 -45 c3 -25 8 -77 11 -116 4 -38 8 -81 11 -95 2
-14 6 -60 10 -102 3 -43 7 -88 9 -99 2 -12 7 -56 10 -98 4 -42 8 -87 10 -101
2 -14 7 -56 10 -95 3 -38 8 -83 10 -100 2 -16 7 -61 10 -100 3 -38 7 -83 10
-100 2 -16 6 -57 10 -90 3 -33 8 -78 10 -100 3 -22 7 -69 10 -105 5 -64 7 -82
19 -190 7 -65 24 -232 31 -310 3 -30 7 -71 10 -90 2 -19 7 -69 10 -110 3 -41
8 -86 10 -100 3 -14 7 -52 10 -85 2 -33 6 -78 9 -100 2 -22 7 -71 11 -110 3
-38 8 -81 10 -95 2 -14 6 -59 10 -101 3 -42 7 -85 9 -96 3 -11 7 -60 11 -109
3 -49 8 -96 10 -104 2 -8 7 -49 10 -90 4 -41 8 -86 10 -100 2 -14 6 -56 10
-95 3 -38 7 -86 10 -105 2 -19 7 -66 10 -105 4 -38 8 -83 10 -100 4 -36 13
-124 20 -202 3 -32 8 -78 10 -103 11 -91 14 -126 20 -190 3 -36 8 -81 10 -100
2 -19 7 -64 10 -100 4 -36 8 -81 10 -100 2 -19 7 -64 10 -100 3 -36 8 -76 10
-90 2 -14 6 -59 10 -100 3 -41 8 -89 10 -105 2 -17 6 -64 10 -105 4 -41 9 -88
11 -105 2 -16 6 -59 9 -95 3 -36 7 -78 9 -95 2 -16 7 -64 10 -105 4 -41 9 -86
11 -100 2 -14 7 -58 10 -98 4 -41 8 -86 10 -100 10 -84 19 -184 19 -236 l1
-59 -203 -1 c-202 -1 -214 1 -218 34 0 8 -4 51 -9 95 -4 44 -9 91 -10 105 -1
14 -6 57 -9 95 -8 81 -14 143 -21 200 -2 22 -7 69 -10 105 -3 36 -8 76 -10 90
-2 14 -7 61 -10 105 -4 44 -8 91 -10 105 -1 14 -5 57 -9 95 -4 39 -9 86 -11
105 -2 19 -7 62 -10 95 -3 33 -7 76 -9 95 -3 19 -8 67 -11 105 -3 39 -8 81
-10 95 -2 14 -7 61 -10 105 -4 44 -9 91 -10 105 -1 14 -5 57 -9 95 -4 39 -8
86 -11 105 -4 40 -14 131 -21 205 -2 28 -6 70 -9 95 -2 25 -7 69 -10 98 -3 28
-7 73 -10 100 -3 26 -7 74 -10 107 -3 33 -7 74 -10 90 -2 17 -7 66 -10 110 -4
44 -8 91 -10 105 -6 38 -14 118 -20 185 -3 33 -7 80 -10 105 -8 78 -14 133
-21 205 -4 39 -8 81 -9 95 -2 14 -6 57 -9 95 -4 39 -9 90 -12 115 -12 113 -16
156 -29 295 -7 68 -10 106 -19 185 -7 64 -12 117 -21 215 -3 39 -8 88 -11 110
-3 22 -7 56 -9 75 -2 19 -7 67 -10 105 -3 39 -7 86 -10 105 -2 19 -7 62 -10
95 -3 33 -8 78 -10 100 -2 22 -7 65 -9 95 -7 67 -14 143 -21 208 -3 26 -7 74
-10 107 -3 33 -7 74 -10 90 -2 17 -7 66 -10 110 -4 44 -9 87 -10 97 -2 9 -6
53 -10 98 -4 45 -8 90 -10 100 -2 11 -7 59 -10 107 -4 48 -9 96 -10 105 -3 15
-9 73 -20 188 -10 103 -17 169 -20 200 -2 19 -7 67 -10 105 -3 39 -8 81 -10
94 -2 13 -7 63 -11 110 l-6 86 2244 -2 c1233 -1 2251 -2 2261 -2z"/>
</g>
</svg>
