<svg id="IconSmall-Untappd" xmlns="http://www.w3.org/2000/svg" width="54" height="54" viewBox="0 0 54 54">
  <g id="Ellipse_14" data-name="Ellipse 14" fill="none" stroke="#009292" stroke-width="1">
    <circle cx="27" cy="27" r="27" stroke="none"/>
    <circle cx="27" cy="27" r="26.5" fill="none"/>
  </g>
  <path id="untappd-brands" d="M31.674,2.433c-3.773,8.126-4,7.74-4.156,8.791l-.246,1.665a4.151,4.151,0,0,1-.648,1.7L19.585,25.131a1.641,1.641,0,0,1-1.579.741A5.992,5.992,0,0,1,13.5,22.4a1.931,1.931,0,0,1,.147-1.848L20.687,10a3.807,3.807,0,0,1,1.286-1.2l1.385-.787c.875-.5.459-.6,6.411-7.05.047-.244.047-.371.17-.406.142-.036.312-.051.3-.233L30.218.083A.162.162,0,0,1,30.369-.1a1.985,1.985,0,0,1,1.21.508,2.193,2.193,0,0,1,.837,1.071.173.173,0,0,1-.113.213l-.213.056c-.161.046-.118.223-.109.376s-.109.183-.307.31ZM23.58,1.747c.161.046.118.223.109.376-.009.137.1.178.3.3.373.807.723,1.548,1.05,2.233a.093.093,0,0,0,.156.025c.529-.609,1.163-1.33,1.915-2.162a.191.191,0,0,0,0-.249c-.378-.416-.78-.858-1.21-1.325-.047-.239-.047-.371-.17-.406-.142-.041-.312-.051-.3-.233.014-.167.066-.411-.132-.416A1.952,1.952,0,0,0,24.1.4a2.193,2.193,0,0,0-.837,1.071c-.066.213.17.233.321.274Zm18.433,18.8L34.978,9.99c-.624-.939-1.258-1.188-2.666-1.985-.529-.3-.671-.553-1.442-1.467a.1.1,0,0,0-.17.025c-2.189,4.507-2.227,4.2-2.317,4.812a4.9,4.9,0,0,0,.014,1.513,4.151,4.151,0,0,0,.648,1.7l7.039,10.552a1.637,1.637,0,0,0,1.565.746A6,6,0,0,0,42.174,22.4,1.979,1.979,0,0,0,42.013,20.543Z" transform="translate(-1.332 13.105)" fill="#009292"/>
</svg>
