<svg id="IconLarge-Star_Rating" data-name="IconLarge-Star Rating" xmlns="http://www.w3.org/2000/svg" xmlns:xlink="http://www.w3.org/1999/xlink" width="165" height="25" viewBox="0 0 165 25">
  <defs>
    <clipPath id="clip-path">
      <rect width="129" height="25" fill="none"/>
    </clipPath>
  </defs>
  <g id="Repeat_Grid_1" data-name="Repeat Grid 1" clip-path="url(#clip-path)">
    <g transform="translate(-187 -680)">
      <g id="Icon-Star" transform="translate(187.447 680.447)">
        <g id="Polygon_1" data-name="Polygon 1" transform="translate(-0.447 -0.447)" fill="#e6b449">
          <path d="M 18.66519927978516 22.92888641357422 L 12.2685604095459 18.85568046569824 L 12 18.68466949462891 L 11.7314395904541 18.85568046569824 L 5.33480167388916 22.92888641357422 L 7.051420211791992 15.2330904006958 L 7.114699840545654 14.94937038421631 L 6.899449825286865 14.75399971008301 L 1.182001709938049 9.564757347106934 L 8.683979988098145 8.902299880981445 L 8.99015998840332 8.875260353088379 L 9.104269981384277 8.589850425720215 L 12 1.346870899200439 L 14.89573001861572 8.589850425720215 L 15.00984001159668 8.875260353088379 L 15.31602001190186 8.902299880981445 L 22.8179988861084 9.564748764038086 L 17.10054969787598 14.75399971008301 L 16.88529968261719 14.94937038421631 L 16.94857978820801 15.2330904006958 L 18.66519927978516 22.92888641357422 Z" stroke="none"/>
          <path d="M 12 2.693752288818359 L 9.340330123901367 9.34628963470459 L 2.363994598388672 9.962326049804688 L 7.666000366210938 14.77449989318848 L 6.086006164550781 21.85776710510254 L 12 18.09189987182617 L 17.91399383544922 21.85776710510254 L 16.33399963378906 14.77449989318848 L 21.63600540161133 9.962318420410156 L 14.65966987609863 9.34628963470459 L 12 2.693752288818359 M 12 0 L 15.35999965667725 8.404239654541016 L 24 9.167180061340332 L 17.43659019470215 15.12423992156982 L 19.41641044616699 24 L 12 19.27742958068848 L 4.583589553833008 24 L 6.563409805297852 15.12423992156982 L 0 9.167189598083496 L 8.640000343322754 8.404239654541016 L 12 0 Z" stroke="none" fill="#010f2b"/>
        </g>
      </g>
    </g>
    <g transform="translate(-161 -680)">
      <g id="Icon-Star-2" data-name="Icon-Star" transform="translate(187.447 680.447)">
        <g id="Polygon_1-2" data-name="Polygon 1" transform="translate(-0.447 -0.447)" fill="#e6b449">
          <path d="M 18.66519927978516 22.92888641357422 L 12.2685604095459 18.85568046569824 L 12 18.68466949462891 L 11.7314395904541 18.85568046569824 L 5.33480167388916 22.92888641357422 L 7.051420211791992 15.2330904006958 L 7.114699840545654 14.94937038421631 L 6.899449825286865 14.75399971008301 L 1.182001709938049 9.564757347106934 L 8.683979988098145 8.902299880981445 L 8.99015998840332 8.875260353088379 L 9.104269981384277 8.589850425720215 L 12 1.346870899200439 L 14.89573001861572 8.589850425720215 L 15.00984001159668 8.875260353088379 L 15.31602001190186 8.902299880981445 L 22.8179988861084 9.564748764038086 L 17.10054969787598 14.75399971008301 L 16.88529968261719 14.94937038421631 L 16.94857978820801 15.2330904006958 L 18.66519927978516 22.92888641357422 Z" stroke="none"/>
          <path d="M 12 2.693752288818359 L 9.340330123901367 9.34628963470459 L 2.363994598388672 9.962326049804688 L 7.666000366210938 14.77449989318848 L 6.086006164550781 21.85776710510254 L 12 18.09189987182617 L 17.91399383544922 21.85776710510254 L 16.33399963378906 14.77449989318848 L 21.63600540161133 9.962318420410156 L 14.65966987609863 9.34628963470459 L 12 2.693752288818359 M 12 0 L 15.35999965667725 8.404239654541016 L 24 9.167180061340332 L 17.43659019470215 15.12423992156982 L 19.41641044616699 24 L 12 19.27742958068848 L 4.583589553833008 24 L 6.563409805297852 15.12423992156982 L 0 9.167189598083496 L 8.640000343322754 8.404239654541016 L 12 0 Z" stroke="none" fill="#010f2b"/>
        </g>
      </g>
    </g>
    <g transform="translate(-135 -680)">
      <g id="Icon-Star-3" data-name="Icon-Star" transform="translate(187.447 680.447)">
        <g id="Polygon_1-3" data-name="Polygon 1" transform="translate(-0.447 -0.447)" fill="#e6b449">
          <path d="M 18.66519927978516 22.92888641357422 L 12.2685604095459 18.85568046569824 L 12 18.68466949462891 L 11.7314395904541 18.85568046569824 L 5.33480167388916 22.92888641357422 L 7.051420211791992 15.2330904006958 L 7.114699840545654 14.94937038421631 L 6.899449825286865 14.75399971008301 L 1.182001709938049 9.564757347106934 L 8.683979988098145 8.902299880981445 L 8.99015998840332 8.875260353088379 L 9.104269981384277 8.589850425720215 L 12 1.346870899200439 L 14.89573001861572 8.589850425720215 L 15.00984001159668 8.875260353088379 L 15.31602001190186 8.902299880981445 L 22.8179988861084 9.564748764038086 L 17.10054969787598 14.75399971008301 L 16.88529968261719 14.94937038421631 L 16.94857978820801 15.2330904006958 L 18.66519927978516 22.92888641357422 Z" stroke="none"/>
          <path d="M 12 2.693752288818359 L 9.340330123901367 9.34628963470459 L 2.363994598388672 9.962326049804688 L 7.666000366210938 14.77449989318848 L 6.086006164550781 21.85776710510254 L 12 18.09189987182617 L 17.91399383544922 21.85776710510254 L 16.33399963378906 14.77449989318848 L 21.63600540161133 9.962318420410156 L 14.65966987609863 9.34628963470459 L 12 2.693752288818359 M 12 0 L 15.35999965667725 8.404239654541016 L 24 9.167180061340332 L 17.43659019470215 15.12423992156982 L 19.41641044616699 24 L 12 19.27742958068848 L 4.583589553833008 24 L 6.563409805297852 15.12423992156982 L 0 9.167189598083496 L 8.640000343322754 8.404239654541016 L 12 0 Z" stroke="none" fill="#010f2b"/>
        </g>
      </g>
    </g>
    <g transform="translate(-109 -680)">
      <g id="Icon-Star-4" data-name="Icon-Star" transform="translate(187.447 680.447)">
        <g id="Polygon_1-4" data-name="Polygon 1" transform="translate(-0.447 -0.447)" fill="#e6b449">
          <path d="M 18.66519927978516 22.92888641357422 L 12.2685604095459 18.85568046569824 L 12 18.68466949462891 L 11.7314395904541 18.85568046569824 L 5.33480167388916 22.92888641357422 L 7.051420211791992 15.2330904006958 L 7.114699840545654 14.94937038421631 L 6.899449825286865 14.75399971008301 L 1.182001709938049 9.564757347106934 L 8.683979988098145 8.902299880981445 L 8.99015998840332 8.875260353088379 L 9.104269981384277 8.589850425720215 L 12 1.346870899200439 L 14.89573001861572 8.589850425720215 L 15.00984001159668 8.875260353088379 L 15.31602001190186 8.902299880981445 L 22.8179988861084 9.564748764038086 L 17.10054969787598 14.75399971008301 L 16.88529968261719 14.94937038421631 L 16.94857978820801 15.2330904006958 L 18.66519927978516 22.92888641357422 Z" stroke="none"/>
          <path d="M 12 2.693752288818359 L 9.340330123901367 9.34628963470459 L 2.363994598388672 9.962326049804688 L 7.666000366210938 14.77449989318848 L 6.086006164550781 21.85776710510254 L 12 18.09189987182617 L 17.91399383544922 21.85776710510254 L 16.33399963378906 14.77449989318848 L 21.63600540161133 9.962318420410156 L 14.65966987609863 9.34628963470459 L 12 2.693752288818359 M 12 0 L 15.35999965667725 8.404239654541016 L 24 9.167180061340332 L 17.43659019470215 15.12423992156982 L 19.41641044616699 24 L 12 19.27742958068848 L 4.583589553833008 24 L 6.563409805297852 15.12423992156982 L 0 9.167189598083496 L 8.640000343322754 8.404239654541016 L 12 0 Z" stroke="none" fill="#010f2b"/>
        </g>
      </g>
    </g>
    <g transform="translate(-83 -680)">
      <g id="Icon-Star-5" data-name="Icon-Star" transform="translate(187.447 680.447)">
        <g id="Polygon_1-5" data-name="Polygon 1" transform="translate(-0.447 -0.447)" fill="#e6b449">
          <path d="M 18.66519927978516 22.92888641357422 L 12.2685604095459 18.85568046569824 L 12 18.68466949462891 L 11.7314395904541 18.85568046569824 L 5.33480167388916 22.92888641357422 L 7.051420211791992 15.2330904006958 L 7.114699840545654 14.94937038421631 L 6.899449825286865 14.75399971008301 L 1.182001709938049 9.564757347106934 L 8.683979988098145 8.902299880981445 L 8.99015998840332 8.875260353088379 L 9.104269981384277 8.589850425720215 L 12 1.346870899200439 L 14.89573001861572 8.589850425720215 L 15.00984001159668 8.875260353088379 L 15.31602001190186 8.902299880981445 L 22.8179988861084 9.564748764038086 L 17.10054969787598 14.75399971008301 L 16.88529968261719 14.94937038421631 L 16.94857978820801 15.2330904006958 L 18.66519927978516 22.92888641357422 Z" stroke="none"/>
          <path d="M 12 2.693752288818359 L 9.340330123901367 9.34628963470459 L 2.363994598388672 9.962326049804688 L 7.666000366210938 14.77449989318848 L 6.086006164550781 21.85776710510254 L 12 18.09189987182617 L 17.91399383544922 21.85776710510254 L 16.33399963378906 14.77449989318848 L 21.63600540161133 9.962318420410156 L 14.65966987609863 9.34628963470459 L 12 2.693752288818359 M 12 0 L 15.35999965667725 8.404239654541016 L 24 9.167180061340332 L 17.43659019470215 15.12423992156982 L 19.41641044616699 24 L 12 19.27742958068848 L 4.583589553833008 24 L 6.563409805297852 15.12423992156982 L 0 9.167189598083496 L 8.640000343322754 8.404239654541016 L 12 0 Z" stroke="none" fill="#010f2b"/>
        </g>
      </g>
    </g>
  </g>
  <text id="_4.9" data-name="4.9" transform="translate(137 21)" fill="#e9edf2" font-size="20" font-family="Ubuntu-Light, Ubuntu" font-weight="300"><tspan x="0" y="0">4.9</tspan></text>
</svg>
