<svg xmlns="http://www.w3.org/2000/svg" width="22.57" height="14" viewBox="0 0 22.57 14">
  <g id="Icon-Password_Shown" data-name="Icon-Password Shown" transform="translate(1.256 1)">
    <path id="Path_35" data-name="Path 35" d="M10.96,20a8.8,8.8,0,0,1-3.873-.967A14.657,14.657,0,0,1,3.9,16.859,20.267,20.267,0,0,1,1.234,14a20.33,20.33,0,0,1,2.689-2.877A14.62,14.62,0,0,1,7.1,8.96,8.79,8.79,0,0,1,10.96,8a9.367,9.367,0,0,1,3.961.965A16.578,16.578,0,0,1,18.3,11.139,23.3,23.3,0,0,1,21.234,14a23.3,23.3,0,0,1-2.93,2.861,16.578,16.578,0,0,1-3.384,2.173A9.367,9.367,0,0,1,10.96,20Z" transform="translate(-1.234 -8)" fill="none" stroke="#e9edf2" stroke-linecap="round" stroke-width="2"/>
    <circle id="Ellipse_11" data-name="Ellipse 11" cx="2.5" cy="2.5" r="2.5" transform="translate(7.5 3.5)" fill="#e9edf2"/>
  </g>
</svg>
