<svg id="IconSmall-Facebook_Large_" data-name="IconSmall-Facebook (Large)" xmlns="http://www.w3.org/2000/svg" width="61" height="61" viewBox="0 0 61 61">
  <g id="Path_55" data-name="Path 55" fill="none">
    <path d="M30.5,0A30.5,30.5,0,1,1,0,30.5,30.5,30.5,0,0,1,30.5,0Z" stroke="none"/>
    <path d="M 30.5 1 C 26.5170783996582 1 22.65383911132812 1.779838562011719 19.01757049560547 3.317840576171875 C 15.50484848022461 4.803600311279297 12.34989929199219 6.930801391601562 9.640350341796875 9.640350341796875 C 6.930801391601562 12.34989929199219 4.803600311279297 15.50484848022461 3.317840576171875 19.01757049560547 C 1.779838562011719 22.65383911132812 1 26.5170783996582 1 30.5 C 1 34.48291015625 1.779838562011719 38.34616088867188 3.317840576171875 41.982421875 C 4.803600311279297 45.49514007568359 6.930801391601562 48.65010070800781 9.640350341796875 51.35964965820312 C 12.34989929199219 54.06919860839844 15.50484848022461 56.1963996887207 19.01757049560547 57.68215179443359 C 22.65383911132812 59.22016143798828 26.5170783996582 60 30.5 60 C 34.48291015625 60 38.34616088867188 59.22016143798828 41.982421875 57.68215179443359 C 45.49514007568359 56.1963996887207 48.65010070800781 54.06919860839844 51.35964965820312 51.35964965820312 C 54.06919860839844 48.65010070800781 56.1963996887207 45.49514007568359 57.68215179443359 41.982421875 C 59.22016143798828 38.34616088867188 60 34.48291015625 60 30.5 C 60 26.5170783996582 59.22016143798828 22.65383911132812 57.68215179443359 19.01757049560547 C 56.1963996887207 15.50484848022461 54.06919860839844 12.34989929199219 51.35964965820312 9.640350341796875 C 48.65010070800781 6.930801391601562 45.49514007568359 4.803600311279297 41.982421875 3.317840576171875 C 38.34616088867188 1.779838562011719 34.48291015625 1 30.5 1 M 30.5 0 C 47.34468078613281 0 61 13.65531158447266 61 30.5 C 61 47.34468078613281 47.34468078613281 61 30.5 61 C 13.65531158447266 61 0 47.34468078613281 0 30.5 C 0 13.65531158447266 13.65531158447266 0 30.5 0 Z" stroke="none" fill="#009292"/>
  </g>
  <path id="Path_44" data-name="Path 44" d="M9.87-13.545a13.978,13.978,0,0,0-4.038-.575c-4.154,0-5.962,2.054-5.962,6.2v2.793h-3V-1.14h3V14.88H4.562V-1.14h4.5l.269-3.984H4.562V-7.63c0-1.52.269-2.382,2.115-2.382a12.93,12.93,0,0,1,2.692.329Z" transform="translate(27.13 30.206)" fill="#009292"/>
</svg>
