<svg id="IconSmall-Venue" xmlns="http://www.w3.org/2000/svg" width="14.999" height="16" viewBox="0 0 14.999 16">
  <g id="Icon-Venue" fill="#e9edf2" stroke-linecap="round">
    <path d="M 14.19929981231689 15.50020027160645 L 0.8001000881195068 15.50020027160645 C 0.6346200704574585 15.50020027160645 0.5000000596046448 15.36558055877686 0.5000000596046448 15.20009994506836 C 0.5000000596046448 15.03462028503418 0.6346200704574585 14.90000057220459 0.8001000881195068 14.90000057220459 L 1.666800022125244 14.90000057220459 L 2.166800022125244 14.90000057220459 L 2.166800022125244 14.40000057220459 L 2.166800022125244 0.4995001256465912 L 12.83310031890869 0.5000001192092896 L 12.83349990844727 14.40000057220459 L 12.83349990844727 14.90000057220459 L 13.33349990844727 14.90000057220459 L 14.19929981231689 14.90000057220459 C 14.36478042602539 14.90000057220459 14.49940013885498 15.03462028503418 14.49940013885498 15.20009994506836 C 14.49940013885498 15.36558055877686 14.36478042602539 15.50020027160645 14.19929981231689 15.50020027160645 Z M 5.750500202178955 10.70050048828125 L 5.750500202178955 11.20050048828125 L 5.750500202178955 14.40000057220459 L 5.750500202178955 14.90000057220459 L 6.250500202178955 14.90000057220459 L 8.749799728393555 14.90000057220459 L 9.249799728393555 14.90000057220459 L 9.249799728393555 14.40000057220459 L 9.249799728393555 11.20050048828125 L 9.249799728393555 10.70050048828125 L 8.749799728393555 10.70050048828125 L 6.250500202178955 10.70050048828125 L 5.750500202178955 10.70050048828125 Z M 8.666500091552734 7.100500106811523 L 8.666500091552734 7.600500106811523 L 8.666500091552734 9.199800491333008 L 8.666500091552734 9.699800491333008 L 9.166500091552734 9.699800491333008 L 10.83329963684082 9.699800491333008 L 11.33329963684082 9.699800491333008 L 11.33329963684082 9.199800491333008 L 11.33329963684082 7.600500106811523 L 11.33329963684082 7.100500106811523 L 10.83329963684082 7.100500106811523 L 9.166500091552734 7.100500106811523 L 8.666500091552734 7.100500106811523 Z M 3.66700005531311 7.100500106811523 L 3.66700005531311 7.600500106811523 L 3.66700005531311 9.199800491333008 L 3.66700005531311 9.699800491333008 L 4.167000293731689 9.699800491333008 L 5.833799839019775 9.699800491333008 L 6.333799839019775 9.699800491333008 L 6.333799839019775 9.199800491333008 L 6.333799839019775 7.600500106811523 L 6.333799839019775 7.100500106811523 L 5.833799839019775 7.100500106811523 L 4.167000293731689 7.100500106811523 L 3.66700005531311 7.100500106811523 Z M 8.666500091552734 4.299700260162354 L 8.666500091552734 4.799700260162354 L 8.666500091552734 6.399899959564209 L 8.666500091552734 6.899899959564209 L 9.166500091552734 6.899899959564209 L 10.83329963684082 6.899899959564209 L 11.33329963684082 6.899899959564209 L 11.33329963684082 6.399899959564209 L 11.33329963684082 4.799700260162354 L 11.33329963684082 4.299700260162354 L 10.83329963684082 4.299700260162354 L 9.166500091552734 4.299700260162354 L 8.666500091552734 4.299700260162354 Z M 3.66700005531311 4.299700260162354 L 3.66700005531311 4.799700260162354 L 3.66700005531311 6.399899959564209 L 3.66700005531311 6.899899959564209 L 4.167000293731689 6.899899959564209 L 5.833799839019775 6.899899959564209 L 6.333799839019775 6.899899959564209 L 6.333799839019775 6.399899959564209 L 6.333799839019775 4.799700260162354 L 6.333799839019775 4.299700260162354 L 5.833799839019775 4.299700260162354 L 4.167000293731689 4.299700260162354 L 3.66700005531311 4.299700260162354 Z M 8.666500091552734 1.499800086021423 L 8.666500091552734 1.999800086021423 L 8.666500091552734 3.600000143051147 L 8.666500091552734 4.099999904632568 L 9.166500091552734 4.099999904632568 L 10.83329963684082 4.099999904632568 L 11.33329963684082 4.099999904632568 L 11.33329963684082 3.600000143051147 L 11.33329963684082 1.999800086021423 L 11.33329963684082 1.499800086021423 L 10.83329963684082 1.499800086021423 L 9.166500091552734 1.499800086021423 L 8.666500091552734 1.499800086021423 Z M 3.66700005531311 1.499800086021423 L 3.66700005531311 1.999800086021423 L 3.66700005531311 3.600000143051147 L 3.66700005531311 4.099999904632568 L 4.167000293731689 4.099999904632568 L 5.833799839019775 4.099999904632568 L 6.333799839019775 4.099999904632568 L 6.333799839019775 3.600000143051147 L 6.333799839019775 1.999800086021423 L 6.333799839019775 1.499800086021423 L 5.833799839019775 1.499800086021423 L 4.167000293731689 1.499800086021423 L 3.66700005531311 1.499800086021423 Z" stroke="none"/>
    <path d="M 12.33349990844727 15.00020027160645 L 12.33349990844727 1.00000011920929 L 11.83329963684082 1.00000011920929 L 11.83329963684082 10.19980049133301 L 8.166500091552734 10.19980049133301 L 8.166500091552734 1.00000011920929 L 6.833799839019775 1.00000011920929 L 6.833799839019775 10.19980049133301 L 3.16700005531311 10.19980049133301 L 3.16700005531311 1.00000011920929 L 2.666800022125244 1.00000011920929 L 2.666800022125244 15.00020027160645 L 5.250500202178955 15.00020027160645 L 5.250500202178955 10.20050048828125 L 9.749799728393555 10.20050048828125 L 9.749799728393555 15.00020027160645 L 12.33349990844727 15.00020027160645 M 14.19929981231689 16.00020027160645 L 0.8001000881195068 16.00020027160645 C 0.3582000732421875 16.00020027160645 6.942748598248727e-08 15.64200019836426 6.942748598248727e-08 15.20009994506836 C 6.942748598248727e-08 14.75819969177246 0.3582000732421875 14.40000057220459 0.8001000881195068 14.40000057220459 L 1.666800022125244 14.40000057220459 L 1.666800022125244 0.4995001256465912 C 1.666800022125244 0.2241001427173615 1.890900015830994 1.358032193365943e-07 2.167200088500977 1.358032193365943e-07 L 12.83310031890869 1.358032193365943e-07 C 13.10850048065186 1.358032193365943e-07 13.33349990844727 0.2241001427173615 13.33349990844727 0.4995001256465912 L 13.33349990844727 14.40000057220459 L 14.19929981231689 14.40000057220459 C 14.64120006561279 14.40000057220459 14.99940013885498 14.75819969177246 14.99940013885498 15.20009994506836 C 14.99940013885498 15.64200019836426 14.64120006561279 16.00020027160645 14.19929981231689 16.00020027160645 Z M 6.250500202178955 11.20050048828125 L 6.250500202178955 14.40000057220459 L 8.749799728393555 14.40000057220459 L 8.749799728393555 11.20050048828125 L 6.250500202178955 11.20050048828125 Z M 9.166500091552734 7.600500106811523 L 9.166500091552734 9.199800491333008 L 10.83329963684082 9.199800491333008 L 10.83329963684082 7.600500106811523 L 9.166500091552734 7.600500106811523 Z M 4.167000293731689 7.600500106811523 L 4.167000293731689 9.199800491333008 L 5.833799839019775 9.199800491333008 L 5.833799839019775 7.600500106811523 L 4.167000293731689 7.600500106811523 Z M 9.166500091552734 4.799700260162354 L 9.166500091552734 6.399899959564209 L 10.83329963684082 6.399899959564209 L 10.83329963684082 4.799700260162354 L 9.166500091552734 4.799700260162354 Z M 4.167000293731689 4.799700260162354 L 4.167000293731689 6.399899959564209 L 5.833799839019775 6.399899959564209 L 5.833799839019775 4.799700260162354 L 4.167000293731689 4.799700260162354 Z M 9.166500091552734 1.999800086021423 L 9.166500091552734 3.600000143051147 L 10.83329963684082 3.600000143051147 L 10.83329963684082 1.999800086021423 L 9.166500091552734 1.999800086021423 Z M 4.167000293731689 1.999800086021423 L 4.167000293731689 3.600000143051147 L 5.833799839019775 3.600000143051147 L 5.833799839019775 1.999800086021423 L 4.167000293731689 1.999800086021423 Z" stroke="none" fill="#e9edf2"/>
  </g>
</svg>
