<svg id="IconSmall-Star_Rating" data-name="IconSmall-Star Rating" xmlns="http://www.w3.org/2000/svg" xmlns:xlink="http://www.w3.org/1999/xlink" width="123" height="18" viewBox="0 0 123 18">
  <defs>
    <clipPath id="clip-path">
      <rect width="93" height="15" fill="none"/>
    </clipPath>
  </defs>
  <g id="Repeat_Grid_1" data-name="Repeat Grid 1" transform="translate(0 1)" clip-path="url(#clip-path)">
    <g transform="translate(-187 -680)">
      <g id="Icon-Star" transform="translate(187 680)">
        <g id="Polygon_1" data-name="Polygon 1" fill="#e6b449">
          <path d="M 11.38403987884521 13.92888641357422 L 7.76855993270874 11.62664031982422 L 7.5 11.45562076568604 L 7.23144006729126 11.62664031982422 L 3.615960121154785 13.92888641357422 L 4.590139865875244 9.561500549316406 L 4.653419971466064 9.277780532836914 L 4.438169956207275 9.08241081237793 L 1.18200159072876 6.127058982849121 L 5.44398021697998 5.750710487365723 L 5.750160217285156 5.723670482635498 L 5.864270210266113 5.438260555267334 L 7.5 1.346871376037598 L 9.135729789733887 5.438260555267334 L 9.249839782714844 5.723670482635498 L 9.55601978302002 5.750710487365723 L 13.8179988861084 6.127058982849121 L 10.56182956695557 9.08241081237793 L 10.34657955169678 9.277780532836914 L 10.4098596572876 9.561500549316406 L 11.38403987884521 13.92888641357422 Z" stroke="none"/>
          <path d="M 7.5 2.693752288818359 L 6.100330352783203 6.194700241088867 L 2.363993644714355 6.524628639221191 L 5.204719543457031 9.102910995483398 L 4.367161750793457 12.85777854919434 L 7.5 10.86286067962646 L 10.63283920288086 12.85777854919434 L 9.795280456542969 9.102910995483398 L 12.63600635528564 6.524628639221191 L 8.899669647216797 6.194700241088867 L 7.5 2.693752288818359 M 7.5 9.5367431640625e-07 L 9.600000381469727 5.252650260925293 L 15 5.729490280151367 L 10.89787006378174 9.45265007019043 L 12.13525009155273 15 L 7.5 12.04839038848877 L 2.864749908447266 15 L 4.102129936218262 9.45265007019043 L 0 5.729490280151367 L 5.399999618530273 5.252650260925293 L 7.5 9.5367431640625e-07 Z" stroke="none" fill="#e6b449"/>
        </g>
      </g>
    </g>
    <g transform="translate(-168 -680)">
      <g id="Icon-Star-2" data-name="Icon-Star" transform="translate(187 680)">
        <g id="Polygon_1-2" data-name="Polygon 1" fill="#e6b449">
          <path d="M 11.38403987884521 13.92888641357422 L 7.76855993270874 11.62664031982422 L 7.5 11.45562076568604 L 7.23144006729126 11.62664031982422 L 3.615960121154785 13.92888641357422 L 4.590139865875244 9.561500549316406 L 4.653419971466064 9.277780532836914 L 4.438169956207275 9.08241081237793 L 1.18200159072876 6.127058982849121 L 5.44398021697998 5.750710487365723 L 5.750160217285156 5.723670482635498 L 5.864270210266113 5.438260555267334 L 7.5 1.346871376037598 L 9.135729789733887 5.438260555267334 L 9.249839782714844 5.723670482635498 L 9.55601978302002 5.750710487365723 L 13.8179988861084 6.127058982849121 L 10.56182956695557 9.08241081237793 L 10.34657955169678 9.277780532836914 L 10.4098596572876 9.561500549316406 L 11.38403987884521 13.92888641357422 Z" stroke="none"/>
          <path d="M 7.5 2.693752288818359 L 6.100330352783203 6.194700241088867 L 2.363993644714355 6.524628639221191 L 5.204719543457031 9.102910995483398 L 4.367161750793457 12.85777854919434 L 7.5 10.86286067962646 L 10.63283920288086 12.85777854919434 L 9.795280456542969 9.102910995483398 L 12.63600635528564 6.524628639221191 L 8.899669647216797 6.194700241088867 L 7.5 2.693752288818359 M 7.5 9.5367431640625e-07 L 9.600000381469727 5.252650260925293 L 15 5.729490280151367 L 10.89787006378174 9.45265007019043 L 12.13525009155273 15 L 7.5 12.04839038848877 L 2.864749908447266 15 L 4.102129936218262 9.45265007019043 L 0 5.729490280151367 L 5.399999618530273 5.252650260925293 L 7.5 9.5367431640625e-07 Z" stroke="none" fill="#e6b449"/>
        </g>
      </g>
    </g>
    <g transform="translate(-149 -680)">
      <g id="Icon-Star-3" data-name="Icon-Star" transform="translate(187 680)">
        <g id="Polygon_1-3" data-name="Polygon 1" fill="#e6b449">
          <path d="M 11.38403987884521 13.92888641357422 L 7.76855993270874 11.62664031982422 L 7.5 11.45562076568604 L 7.23144006729126 11.62664031982422 L 3.615960121154785 13.92888641357422 L 4.590139865875244 9.561500549316406 L 4.653419971466064 9.277780532836914 L 4.438169956207275 9.08241081237793 L 1.18200159072876 6.127058982849121 L 5.44398021697998 5.750710487365723 L 5.750160217285156 5.723670482635498 L 5.864270210266113 5.438260555267334 L 7.5 1.346871376037598 L 9.135729789733887 5.438260555267334 L 9.249839782714844 5.723670482635498 L 9.55601978302002 5.750710487365723 L 13.8179988861084 6.127058982849121 L 10.56182956695557 9.08241081237793 L 10.34657955169678 9.277780532836914 L 10.4098596572876 9.561500549316406 L 11.38403987884521 13.92888641357422 Z" stroke="none"/>
          <path d="M 7.5 2.693752288818359 L 6.100330352783203 6.194700241088867 L 2.363993644714355 6.524628639221191 L 5.204719543457031 9.102910995483398 L 4.367161750793457 12.85777854919434 L 7.5 10.86286067962646 L 10.63283920288086 12.85777854919434 L 9.795280456542969 9.102910995483398 L 12.63600635528564 6.524628639221191 L 8.899669647216797 6.194700241088867 L 7.5 2.693752288818359 M 7.5 9.5367431640625e-07 L 9.600000381469727 5.252650260925293 L 15 5.729490280151367 L 10.89787006378174 9.45265007019043 L 12.13525009155273 15 L 7.5 12.04839038848877 L 2.864749908447266 15 L 4.102129936218262 9.45265007019043 L 0 5.729490280151367 L 5.399999618530273 5.252650260925293 L 7.5 9.5367431640625e-07 Z" stroke="none" fill="#e6b449"/>
        </g>
      </g>
    </g>
    <g transform="translate(-130 -680)">
      <g id="Icon-Star-4" data-name="Icon-Star" transform="translate(187 680)">
        <g id="Polygon_1-4" data-name="Polygon 1" fill="#e6b449">
          <path d="M 11.38403987884521 13.92888641357422 L 7.76855993270874 11.62664031982422 L 7.5 11.45562076568604 L 7.23144006729126 11.62664031982422 L 3.615960121154785 13.92888641357422 L 4.590139865875244 9.561500549316406 L 4.653419971466064 9.277780532836914 L 4.438169956207275 9.08241081237793 L 1.18200159072876 6.127058982849121 L 5.44398021697998 5.750710487365723 L 5.750160217285156 5.723670482635498 L 5.864270210266113 5.438260555267334 L 7.5 1.346871376037598 L 9.135729789733887 5.438260555267334 L 9.249839782714844 5.723670482635498 L 9.55601978302002 5.750710487365723 L 13.8179988861084 6.127058982849121 L 10.56182956695557 9.08241081237793 L 10.34657955169678 9.277780532836914 L 10.4098596572876 9.561500549316406 L 11.38403987884521 13.92888641357422 Z" stroke="none"/>
          <path d="M 7.5 2.693752288818359 L 6.100330352783203 6.194700241088867 L 2.363993644714355 6.524628639221191 L 5.204719543457031 9.102910995483398 L 4.367161750793457 12.85777854919434 L 7.5 10.86286067962646 L 10.63283920288086 12.85777854919434 L 9.795280456542969 9.102910995483398 L 12.63600635528564 6.524628639221191 L 8.899669647216797 6.194700241088867 L 7.5 2.693752288818359 M 7.5 9.5367431640625e-07 L 9.600000381469727 5.252650260925293 L 15 5.729490280151367 L 10.89787006378174 9.45265007019043 L 12.13525009155273 15 L 7.5 12.04839038848877 L 2.864749908447266 15 L 4.102129936218262 9.45265007019043 L 0 5.729490280151367 L 5.399999618530273 5.252650260925293 L 7.5 9.5367431640625e-07 Z" stroke="none" fill="#e6b449"/>
        </g>
      </g>
    </g>
    <g transform="translate(-111 -680)">
      <g id="Icon-Star-5" data-name="Icon-Star" transform="translate(187 680)">
        <g id="Polygon_1-5" data-name="Polygon 1" fill="#e6b449">
          <path d="M 11.38403987884521 13.92888641357422 L 7.76855993270874 11.62664031982422 L 7.5 11.45562076568604 L 7.23144006729126 11.62664031982422 L 3.615960121154785 13.92888641357422 L 4.590139865875244 9.561500549316406 L 4.653419971466064 9.277780532836914 L 4.438169956207275 9.08241081237793 L 1.18200159072876 6.127058982849121 L 5.44398021697998 5.750710487365723 L 5.750160217285156 5.723670482635498 L 5.864270210266113 5.438260555267334 L 7.5 1.346871376037598 L 9.135729789733887 5.438260555267334 L 9.249839782714844 5.723670482635498 L 9.55601978302002 5.750710487365723 L 13.8179988861084 6.127058982849121 L 10.56182956695557 9.08241081237793 L 10.34657955169678 9.277780532836914 L 10.4098596572876 9.561500549316406 L 11.38403987884521 13.92888641357422 Z" stroke="none"/>
          <path d="M 7.5 2.693752288818359 L 6.100330352783203 6.194700241088867 L 2.363993644714355 6.524628639221191 L 5.204719543457031 9.102910995483398 L 4.367161750793457 12.85777854919434 L 7.5 10.86286067962646 L 10.63283920288086 12.85777854919434 L 9.795280456542969 9.102910995483398 L 12.63600635528564 6.524628639221191 L 8.899669647216797 6.194700241088867 L 7.5 2.693752288818359 M 7.5 9.5367431640625e-07 L 9.600000381469727 5.252650260925293 L 15 5.729490280151367 L 10.89787006378174 9.45265007019043 L 12.13525009155273 15 L 7.5 12.04839038848877 L 2.864749908447266 15 L 4.102129936218262 9.45265007019043 L 0 5.729490280151367 L 5.399999618530273 5.252650260925293 L 7.5 9.5367431640625e-07 Z" stroke="none" fill="#e6b449"/>
        </g>
      </g>
    </g>
  </g>
  <text id="_4.9" data-name="4.9" transform="translate(101 15)" fill="#e9edf2" font-size="16" font-family="Ubuntu-Light, Ubuntu" font-weight="300"><tspan x="0" y="0">4.9</tspan></text>
</svg>
