<svg id="IconSmall-Time" xmlns="http://www.w3.org/2000/svg" width="16" height="16" viewBox="0 0 16 16">
  <g id="Ellipse_14" data-name="Ellipse 14" fill="none" stroke="#e9edf2" stroke-width="1">
    <circle cx="8" cy="8" r="8" stroke="none"/>
    <circle cx="8" cy="8" r="7.5" fill="none"/>
  </g>
  <path id="Union_5" data-name="Union 5" d="M3.644,6.885.511,5.162a.875.875,0,0,1-.375-.4A.827.827,0,0,1,0,4.308V.862A.884.884,0,0,1,.9,0a.884.884,0,0,1,.9.862V3.886L4.547,5.393A.84.84,0,0,1,4.879,6.57.916.916,0,0,1,4.095,7,.938.938,0,0,1,3.644,6.885Z" transform="translate(7 3.5)" fill="#e9edf2"/>
</svg>
