<svg id="IconSmall-Venue_Large_" data-name="IconSmall-Venue (Large)" xmlns="http://www.w3.org/2000/svg" width="22.499" height="23.999" viewBox="0 0 22.499 23.999">
  <g id="Icon-Venue">
    <g id="Icon-Venue-2" data-name="Icon-Venue" fill="#e9edf2" stroke-linecap="round">
      <path d="M 21.49919891357422 23.4994010925293 L 0.9998998641967773 23.4994010925293 C 0.7242498397827148 23.4994010925293 0.4999998509883881 23.27515029907227 0.4999998509883881 22.9995002746582 L 0.4999998509883881 22.59900093078613 C 0.4999998509883881 22.32335090637207 0.7242498397827148 22.09910011291504 0.9998998641967773 22.09910011291504 L 2.500199794769287 22.09910011291504 L 3.000199794769287 22.09910011291504 L 3.000199794769287 21.59910011291504 L 3.000199794769287 0.4995005428791046 L 19.49939918518066 0.500000536441803 L 19.49979972839355 21.59910011291504 L 19.49979972839355 22.09910011291504 L 19.99979972839355 22.09910011291504 L 21.49919891357422 22.09910011291504 C 21.77484893798828 22.09910011291504 21.99909973144531 22.32335090637207 21.99909973144531 22.59900093078613 L 21.99909973144531 22.9995002746582 C 21.99909973144531 23.27515029907227 21.77484893798828 23.4994010925293 21.49919891357422 23.4994010925293 Z M 8.87440013885498 16.29940032958984 L 8.87440013885498 16.79940032958984 L 8.87440013885498 21.59910011291504 L 8.87440013885498 22.09910011291504 L 9.37440013885498 22.09910011291504 L 13.12469959259033 22.09910011291504 L 13.62469959259033 22.09910011291504 L 13.62469959259033 21.59910011291504 L 13.62469959259033 16.79940032958984 L 13.62469959259033 16.29940032958984 L 13.12469959259033 16.29940032958984 L 9.37440013885498 16.29940032958984 L 8.87440013885498 16.29940032958984 Z M 13.24930000305176 10.89940071105957 L 13.24930000305176 11.39940071105957 L 13.24930000305176 13.79970073699951 L 13.24930000305176 14.29970073699951 L 13.74930000305176 14.29970073699951 L 16.2495002746582 14.29970073699951 L 16.7495002746582 14.29970073699951 L 16.7495002746582 13.79970073699951 L 16.7495002746582 11.39940071105957 L 16.7495002746582 10.89940071105957 L 16.2495002746582 10.89940071105957 L 13.74930000305176 10.89940071105957 L 13.24930000305176 10.89940071105957 Z M 5.749599933624268 10.89940071105957 L 5.749599933624268 11.39940071105957 L 5.749599933624268 13.79970073699951 L 5.749599933624268 14.29970073699951 L 6.249599933624268 14.29970073699951 L 8.749799728393555 14.29970073699951 L 9.249799728393555 14.29970073699951 L 9.249799728393555 13.79970073699951 L 9.249799728393555 11.39940071105957 L 9.249799728393555 10.89940071105957 L 8.749799728393555 10.89940071105957 L 6.249599933624268 10.89940071105957 L 5.749599933624268 10.89940071105957 Z M 13.24930000305176 6.700000762939453 L 13.24930000305176 7.200000762939453 L 13.24930000305176 9.599400520324707 L 13.24930000305176 10.09940052032471 L 13.74930000305176 10.09940052032471 L 16.2495002746582 10.09940052032471 L 16.7495002746582 10.09940052032471 L 16.7495002746582 9.599400520324707 L 16.7495002746582 7.200000762939453 L 16.7495002746582 6.700000762939453 L 16.2495002746582 6.700000762939453 L 13.74930000305176 6.700000762939453 L 13.24930000305176 6.700000762939453 Z M 5.749599933624268 6.700000762939453 L 5.749599933624268 7.200000762939453 L 5.749599933624268 9.599400520324707 L 5.749599933624268 10.09940052032471 L 6.249599933624268 10.09940052032471 L 8.749799728393555 10.09940052032471 L 9.249799728393555 10.09940052032471 L 9.249799728393555 9.599400520324707 L 9.249799728393555 7.200000762939453 L 9.249799728393555 6.700000762939453 L 8.749799728393555 6.700000762939453 L 6.249599933624268 6.700000762939453 L 5.749599933624268 6.700000762939453 Z M 13.24930000305176 2.499700546264648 L 13.24930000305176 2.999700546264648 L 13.24930000305176 5.40000057220459 L 13.24930000305176 5.90000057220459 L 13.74930000305176 5.90000057220459 L 16.2495002746582 5.90000057220459 L 16.7495002746582 5.90000057220459 L 16.7495002746582 5.40000057220459 L 16.7495002746582 2.999700546264648 L 16.7495002746582 2.499700546264648 L 16.2495002746582 2.499700546264648 L 13.74930000305176 2.499700546264648 L 13.24930000305176 2.499700546264648 Z M 5.749599933624268 2.499700546264648 L 5.749599933624268 2.999700546264648 L 5.749599933624268 5.40000057220459 L 5.749599933624268 5.90000057220459 L 6.249599933624268 5.90000057220459 L 8.749799728393555 5.90000057220459 L 9.249799728393555 5.90000057220459 L 9.249799728393555 5.40000057220459 L 9.249799728393555 2.999700546264648 L 9.249799728393555 2.499700546264648 L 8.749799728393555 2.499700546264648 L 6.249599933624268 2.499700546264648 L 5.749599933624268 2.499700546264648 Z" stroke="none"/>
      <path d="M 21.49919891357422 22.9994010925293 L 21.49909973144531 22.9994010925293 L 21.49919891357422 22.59910011291504 L 18.99979972839355 22.59910011291504 L 18.99979972839355 1.000000596046448 L 3.500199794769287 1.000000596046448 L 3.500199794769287 22.59910011291504 L 0.9999998807907104 22.59900093078613 L 0.9998998641967773 22.9994010925293 L 21.49919891357422 22.9994010925293 M 8.37440013885498 15.79940032958984 L 14.12469959259033 15.79940032958984 L 14.12469959259033 22.59910011291504 L 8.37440013885498 22.59910011291504 L 8.37440013885498 15.79940032958984 M 12.74930000305176 10.39940071105957 L 12.74930000305176 1.999700546264648 L 17.2495002746582 1.999700546264648 L 17.2495002746582 14.79970073699951 L 12.74930000305176 14.79970073699951 L 12.74930000305176 10.39940071105957 M 5.249599933624268 10.39940071105957 L 5.249599933624268 1.999700546264648 L 9.749799728393555 1.999700546264648 L 9.749799728393555 14.79970073699951 L 5.249599933624268 14.79970073699951 L 5.249599933624268 10.39940071105957 M 21.49919891357422 23.9994010925293 L 0.9998998641967773 23.9994010925293 C 0.4472998678684235 23.9994010925293 -1.342773430224042e-07 23.55120086669922 -1.342773430224042e-07 22.9995002746582 L -1.342773430224042e-07 22.59900093078613 C -1.342773430224042e-07 22.04730033874512 0.4472998678684235 21.59910011291504 0.9998998641967773 21.59910011291504 L 2.500199794769287 21.59910011291504 L 2.500199794769287 0.4995005428791046 C 2.500199794769287 0.2241005450487137 2.724299907684326 5.462646299747576e-07 2.999699831008911 5.462646299747576e-07 L 19.49939918518066 5.462646299747576e-07 C 19.77479934692383 5.462646299747576e-07 19.99979972839355 0.2241005450487137 19.99979972839355 0.4995005428791046 L 19.99979972839355 21.59910011291504 L 21.49919891357422 21.59910011291504 C 22.05179977416992 21.59910011291504 22.49909973144531 22.04730033874512 22.49909973144531 22.59900093078613 L 22.49909973144531 22.9995002746582 C 22.49909973144531 23.55120086669922 22.05179977416992 23.9994010925293 21.49919891357422 23.9994010925293 Z M 9.37440013885498 16.79940032958984 L 9.37440013885498 21.59910011291504 L 13.12469959259033 21.59910011291504 L 13.12469959259033 16.79940032958984 L 9.37440013885498 16.79940032958984 Z M 13.74930000305176 11.39940071105957 L 13.74930000305176 13.79970073699951 L 16.2495002746582 13.79970073699951 L 16.2495002746582 11.39940071105957 L 13.74930000305176 11.39940071105957 Z M 6.249599933624268 11.39940071105957 L 6.249599933624268 13.79970073699951 L 8.749799728393555 13.79970073699951 L 8.749799728393555 11.39940071105957 L 6.249599933624268 11.39940071105957 Z M 13.74930000305176 7.200000762939453 L 13.74930000305176 9.599400520324707 L 16.2495002746582 9.599400520324707 L 16.2495002746582 7.200000762939453 L 13.74930000305176 7.200000762939453 Z M 6.249599933624268 7.200000762939453 L 6.249599933624268 9.599400520324707 L 8.749799728393555 9.599400520324707 L 8.749799728393555 7.200000762939453 L 6.249599933624268 7.200000762939453 Z M 13.74930000305176 2.999700546264648 L 13.74930000305176 5.40000057220459 L 16.2495002746582 5.40000057220459 L 16.2495002746582 2.999700546264648 L 13.74930000305176 2.999700546264648 Z M 6.249599933624268 2.999700546264648 L 6.249599933624268 5.40000057220459 L 8.749799728393555 5.40000057220459 L 8.749799728393555 2.999700546264648 L 6.249599933624268 2.999700546264648 Z" stroke="none" fill="#e9edf2"/>
    </g>
  </g>
</svg>
