<svg xmlns="http://www.w3.org/2000/svg" width="22.617" height="19.318" viewBox="0 0 22.617 19.318">
  <g id="Icon-Password_Hidden" data-name="Icon-Password Hidden" transform="translate(1.277)">
    <path id="Path_35" data-name="Path 35" d="M10.96,19.48a9.12,9.12,0,0,1-3.873-.925A14.706,14.706,0,0,1,3.9,16.475,19.745,19.745,0,0,1,1.234,13.74a19.807,19.807,0,0,1,2.689-2.752A14.672,14.672,0,0,1,7.1,8.919,9.113,9.113,0,0,1,10.96,8a9.714,9.714,0,0,1,3.961.924A16.69,16.69,0,0,1,18.3,11a22.839,22.839,0,0,1,2.93,2.737,22.84,22.84,0,0,1-2.93,2.737,16.69,16.69,0,0,1-3.384,2.079A9.714,9.714,0,0,1,10.96,19.48Z" transform="translate(-1.234 -4.081)" fill="none" stroke="#e9edf2" stroke-linecap="round" stroke-width="2"/>
    <g id="Path_37" data-name="Path 37" transform="matrix(0.719, -0.695, 0.695, 0.719, 0.642, 1.593)" fill="none">
      <path d="M.955-.018a1.02,1.02,0,0,1,1,1l.32,22.669a.953.953,0,0,1-.973.972,1.02,1.02,0,0,1-1-1L-.018.954A.953.953,0,0,1,.955-.018Z" stroke="none"/>
      <path d="M 0.9407228231430054 -0.01789283752441406 C 0.945461630821228 -0.01789283752441406 0.9501664638519287 -0.01786041259765625 0.9549221992492676 -0.01779365539550781 C 1.499792098999023 -0.01011276245117188 1.947722196578979 0.4373760223388672 1.955402135848999 0.9817161560058594 L 2.275152206420898 23.65059661865234 C 2.282832145690918 24.19493675231934 1.847349166870117 24.62997627258301 1.302482128143311 24.62230682373047 C 0.7576121091842651 24.61462593078613 0.3096821308135986 24.1671257019043 0.3020021915435791 23.6227970123291 L -0.01774787902832031 0.9539070129394531 C -0.0253608226776123 0.4143276214599609 0.4025266170501709 -0.01789283752441406 0.9407228231430054 -0.01789283752441406 Z" stroke="none" fill="#e9edf2"/>
    </g>
  </g>
</svg>
