<svg id="IconSmall-Google_Maps_Large_" data-name="IconSmall-Google Maps (Large)" xmlns="http://www.w3.org/2000/svg" width="61" height="61" viewBox="0 0 61 61">
  <g id="Ellipse_14" data-name="Ellipse 14" fill="none" stroke="#009292" stroke-width="1">
    <circle cx="30.5" cy="30.5" r="30.5" stroke="none"/>
    <circle cx="30.5" cy="30.5" r="30" fill="none"/>
  </g>
  <path id="icons8-google-maps" d="M20.533,1.2A10.356,10.356,0,0,0,11.051,4.15l4.274,3.5ZM14.544,8.611,10.236,5.094a10.693,10.693,0,0,0-1.43,10.615ZM17.023,7.52A4.232,4.232,0,0,1,18.5,7.25a4.346,4.346,0,0,1,4.324,4.375,4.457,4.457,0,0,1-.048.62l4.8-5.937a10.573,10.573,0,0,0-5.735-4.747Zm2.923,8.224A4.269,4.269,0,0,1,18.5,16a4.346,4.346,0,0,1-4.324-4.375,4.492,4.492,0,0,1,.052-.649L9.409,16.936a10.686,10.686,0,0,0,.8,1.207c.229.312.537.712.9,1.181.783,1.021,1.828,2.385,2.835,3.853Zm-5.289,8.515a15.572,15.572,0,0,1,2.577,5.659A1.248,1.248,0,0,0,18.463,31a1.236,1.236,0,0,0,1.229-1.094c.377-3.019,4.058-7.8,6.041-10.375.346-.45.649-.844.926-1.213A10.729,10.729,0,0,0,28.185,7.528Z" transform="translate(12 16)" fill="#009292"/>
</svg>
