<svg id="IconSmall-Instagram" xmlns="http://www.w3.org/2000/svg" width="54" height="54" viewBox="0 0 54 54">
  <g id="Ellipse_14" data-name="Ellipse 14" fill="none" stroke="#009292" stroke-width="1">
    <circle cx="27" cy="27" r="27" stroke="none"/>
    <circle cx="27" cy="27" r="26.5" fill="none"/>
  </g>
  <path id="instagram-brands" d="M12.928,38.159a6.666,6.666,0,1,0,6.665,6.666A6.655,6.655,0,0,0,12.928,38.159Zm0,11a4.334,4.334,0,1,1,4.333-4.334,4.341,4.341,0,0,1-4.333,4.334ZM21.42,37.886a1.554,1.554,0,1,1-1.554-1.555A1.551,1.551,0,0,1,21.42,37.886Zm4.414,1.578a7.7,7.7,0,0,0-2.1-5.448,7.742,7.742,0,0,0-5.447-2.1c-2.146-.122-8.579-.122-10.725,0a7.731,7.731,0,0,0-5.447,2.094,7.721,7.721,0,0,0-2.1,5.448c-.122,2.147-.122,8.581,0,10.727a7.7,7.7,0,0,0,2.1,5.448,7.752,7.752,0,0,0,5.447,2.1c2.146.122,8.579.122,10.725,0a7.692,7.692,0,0,0,5.447-2.1,7.746,7.746,0,0,0,2.1-5.448c.122-2.147.122-8.575,0-10.721ZM23.061,52.489A4.387,4.387,0,0,1,20.59,54.96c-1.711.679-5.771.522-7.662.522s-5.957.151-7.662-.522a4.387,4.387,0,0,1-2.471-2.471c-.679-1.711-.522-5.773-.522-7.664s-.151-5.958.522-7.664A4.387,4.387,0,0,1,5.266,34.69c1.711-.679,5.771-.522,7.662-.522s5.957-.151,7.662.522a4.387,4.387,0,0,1,2.471,2.471c.679,1.711.522,5.773.522,7.664S23.74,50.783,23.061,52.489Z" transform="translate(14.075 -17.825)" fill="#009292"/>
</svg>
