<svg id="IconSmall-Google_Maps" data-name="IconSmall-Google Maps" xmlns="http://www.w3.org/2000/svg" width="54" height="54" viewBox="0 0 54 54">
  <g id="Ellipse_14" data-name="Ellipse 14" fill="none" stroke="#009292" stroke-width="1">
    <circle cx="27" cy="27" r="27" stroke="none"/>
    <circle cx="27" cy="27" r="26.5" fill="none"/>
  </g>
  <path id="icons8-google-maps" d="M19.936,1.177A10.836,10.836,0,0,0,18,1a10.4,10.4,0,0,0-7.094,2.73l4.071,3.029Zm-5.7,6.42-4.1-3.049A8.679,8.679,0,0,0,8,10.208a8.558,8.558,0,0,0,.767,3.539Zm2.361-.946A4.386,4.386,0,0,1,18,6.417a3.962,3.962,0,0,1,4.118,3.792,3.523,3.523,0,0,1-.046.537L26.644,5.6a9.91,9.91,0,0,0-5.462-4.114Zm2.784,7.128A4.427,4.427,0,0,1,18,14a3.962,3.962,0,0,1-4.118-3.792,3.551,3.551,0,0,1,.049-.563l-4.59,5.166a9.235,9.235,0,0,0,.758,1.047c.218.271.512.618.853,1.024.745.885,1.741,2.067,2.7,3.339Zm-5.037,7.38a12.941,12.941,0,0,1,2.454,4.9A1.157,1.157,0,0,0,17.965,27a1.143,1.143,0,0,0,1.171-.948c.359-2.616,3.865-6.76,5.753-8.992.329-.39.618-.731.882-1.051A8.815,8.815,0,0,0,28,10.208a8.526,8.526,0,0,0-.776-3.551Z" transform="translate(9 14)" fill="#009292"/>
</svg>
