<svg id="IconSmall-Website" xmlns="http://www.w3.org/2000/svg" width="16" height="16" viewBox="0 0 16 16">
  <g id="Ellipse_14" data-name="Ellipse 14" fill="none" stroke="#e9edf2" stroke-width="1">
    <circle cx="8" cy="8" r="8" stroke="none"/>
    <circle cx="8" cy="8" r="7.5" fill="none"/>
  </g>
  <path id="Path_43" data-name="Path 43" d="M-37,705.56v1.973a1.946,1.946,0,0,0-1.558,0c-.7.387-1.144.573-1.308,1.12s.388,1.068.388,1.068l1.668-.372,1.72.372.812.772h1.548l-1.1,1.656a20.217,20.217,0,0,0-3.732-.376c-.932.132-1.972,1.612-1.972,1.612a2.861,2.861,0,0,0,.332,1.468c.372.536,1.972.372,2.04,1.172s-.237.9,0,1.68a4.61,4.61,0,0,0,.76,1.416s1.428.628,1.748,0a7.1,7.1,0,0,1,1.44-2.6,2.608,2.608,0,0,0,.972-1.668,4.12,4.12,0,0,0-.32-1.988,4.531,4.531,0,0,0,1.652,0l2.064,1.592V710.8l-1.344-2.314" transform="translate(45 -705.56)" fill="#e9edf2"/>
</svg>
