<svg id="IconSmall-Instagram_Large_" data-name="IconSmall-Instagram (Large)" xmlns="http://www.w3.org/2000/svg" width="61" height="61" viewBox="0 0 61 61">
  <g id="Ellipse_14" data-name="Ellipse 14" fill="none" stroke="#009292" stroke-width="1">
    <circle cx="30.5" cy="30.5" r="30.5" stroke="none"/>
    <circle cx="30.5" cy="30.5" r="30" fill="none"/>
  </g>
  <path id="instagram-brands" d="M16.429,39.864a8.461,8.461,0,1,0,8.459,8.461A8.446,8.446,0,0,0,16.429,39.864Zm0,13.961a5.5,5.5,0,1,1,5.5-5.5,5.51,5.51,0,0,1-5.5,5.5ZM27.207,39.518a1.973,1.973,0,1,1-1.973-1.973A1.969,1.969,0,0,1,27.207,39.518Zm5.6,2a9.767,9.767,0,0,0-2.665-6.914,9.827,9.827,0,0,0-6.913-2.666c-2.724-.155-10.888-.155-13.612,0A9.813,9.813,0,0,0,2.706,34.6,9.8,9.8,0,0,0,.041,41.514c-.155,2.725-.155,10.891,0,13.615a9.767,9.767,0,0,0,2.665,6.914,9.839,9.839,0,0,0,6.913,2.666c2.724.155,10.888.155,13.612,0a9.763,9.763,0,0,0,6.913-2.666,9.832,9.832,0,0,0,2.665-6.914c.155-2.725.155-10.883,0-13.608ZM29.29,58.052a5.568,5.568,0,0,1-3.136,3.137c-2.172.862-7.325.663-9.725.663s-7.561.191-9.725-.663a5.568,5.568,0,0,1-3.136-3.137C2.706,55.88,2.9,50.726,2.9,48.325s-.191-7.562.663-9.727A5.568,5.568,0,0,1,6.7,35.461c2.172-.862,7.325-.663,9.725-.663s7.561-.191,9.725.663A5.568,5.568,0,0,1,29.29,38.6c.861,2.172.663,7.327.663,9.727S30.151,55.887,29.29,58.052Z" transform="translate(14.075 -17.825)" fill="#009292"/>
</svg>
