<svg id="Icon-Kebab_Menu" data-name="Icon-Kebab Menu" xmlns="http://www.w3.org/2000/svg" width="26" height="24" viewBox="0 0 26 24">
  <path id="Line_39" data-name="Line 39" d="M22.727,1.5H.273A1.654,1.654,0,0,1-1.5,0,1.654,1.654,0,0,1,.273-1.5H22.727A1.654,1.654,0,0,1,24.5,0,1.654,1.654,0,0,1,22.727,1.5Z" transform="translate(1.5 1.5)" fill="#e9edf2"/>
  <path id="Line_39-2" data-name="Line 39" d="M22.727,1.5H.273A1.654,1.654,0,0,1-1.5,0,1.654,1.654,0,0,1,.273-1.5H22.727A1.654,1.654,0,0,1,24.5,0,1.654,1.654,0,0,1,22.727,1.5Z" transform="translate(1.5 12.5)" fill="#e9edf2"/>
  <path id="Line_39-3" data-name="Line 39" d="M22.727,1.5H.273A1.654,1.654,0,0,1-1.5,0,1.654,1.654,0,0,1,.273-1.5H22.727A1.654,1.654,0,0,1,24.5,0,1.654,1.654,0,0,1,22.727,1.5Z" transform="translate(1.5 22.5)" fill="#e9edf2"/>
</svg>
