<svg id="Icon-Sort" xmlns="http://www.w3.org/2000/svg" width="27" height="25" viewBox="0 0 27 25">
  <path id="Line_39" data-name="Line 39" d="M25.156,1H-.156A.932.932,0,0,1-1,0,.932.932,0,0,1-.156-1H25.156A.932.932,0,0,1,26,0,.932.932,0,0,1,25.156,1Z" transform="translate(1 3.5)" fill="#e9edf2"/>
  <path id="Line_40" data-name="Line 40" d="M25.156,1H-.156A.932.932,0,0,1-1,0,.932.932,0,0,1-.156-1H25.156A.932.932,0,0,1,26,0,.932.932,0,0,1,25.156,1Z" transform="translate(1 12.5)" fill="#e9edf2"/>
  <path id="Line_41" data-name="Line 41" d="M25.156,1H-.156A.932.932,0,0,1-1,0,.932.932,0,0,1-.156-1H25.156A.932.932,0,0,1,26,0,.932.932,0,0,1,25.156,1Z" transform="translate(1 21.5)" fill="#e9edf2"/>
  <g id="Path_40" data-name="Path 40" transform="translate(4)" fill="#010f2b" stroke-linecap="round">
    <path d="M 3.5 6 C 2.121500015258789 6 1 4.878499984741211 1 3.5 C 1 2.121500015258789 2.121500015258789 1 3.5 1 C 4.878499984741211 1 6 2.121500015258789 6 3.5 C 6 4.246429920196533 5.671870231628418 4.891359806060791 4.967339992523193 5.529640197753906 L 4.953589916229248 5.542099952697754 L 4.940310001373291 5.555059909820557 C 4.756450176239014 5.734499931335449 4.171529769897461 6 3.5 6 Z" stroke="none"/>
    <path d="M 3.5 2 C 2.672900199890137 2 2 2.672900199890137 2 3.5 C 2 4.327099800109863 2.672900199890137 5 3.5 5 C 3.86486029624939 5 4.16929817199707 4.876700401306152 4.269977569580078 4.812067031860352 L 4.295929908752441 4.788549900054932 C 4.919970035552979 4.223190307617188 5 3.802949905395508 5 3.5 C 5 2.672900199890137 4.327099800109863 2 3.5 2 M 3.5 0 C 5.433000087738037 0 7 1.566999912261963 7 3.5 C 7 4.514820098876953 6.568089962005615 5.428770065307617 5.638750076293945 6.270730018615723 C 5.253769874572754 6.646440029144287 4.418169975280762 7 3.5 7 C 1.566999912261963 7 0 5.433000087738037 0 3.5 C 0 1.566999912261963 1.566999912261963 0 3.5 0 Z" stroke="none" fill="#e9edf2"/>
  </g>
  <g id="Ellipse_16" data-name="Ellipse 16" transform="translate(17 9)" fill="#010f2b" stroke="#e9edf2" stroke-linecap="round" stroke-width="2">
    <circle cx="3.5" cy="3.5" r="3.5" stroke="none"/>
    <circle cx="3.5" cy="3.5" r="2.5" fill="none"/>
  </g>
  <g id="Ellipse_17" data-name="Ellipse 17" transform="translate(8 18)" fill="#010f2b" stroke="#e9edf2" stroke-linecap="round" stroke-width="2">
    <circle cx="3.5" cy="3.5" r="3.5" stroke="none"/>
    <circle cx="3.5" cy="3.5" r="2.5" fill="none"/>
  </g>
</svg>
