<svg id="IconSmall-Website_Large_" data-name="IconSmall-Website (Large)" xmlns="http://www.w3.org/2000/svg" width="24" height="24" viewBox="0 0 24 24">
  <g id="Ellipse_25" data-name="Ellipse 25" fill="none" stroke="#e9edf2" stroke-width="1">
    <circle cx="12" cy="12" r="12" stroke="none"/>
    <circle cx="12" cy="12" r="11.5" fill="none"/>
  </g>
  <path id="Path_58" data-name="Path 58" d="M-34.982,705.56v3.1a3.058,3.058,0,0,0-2.448,0c-1.094.608-1.8.9-2.055,1.76s.61,1.678.61,1.678l2.621-.585,2.7.585,1.276,1.213h2.432l-1.722,2.6a31.766,31.766,0,0,0-5.864-.591c-1.465.207-3.1,2.533-3.1,2.533a4.5,4.5,0,0,0,.522,2.307c.585.842,3.1.584,3.206,1.841s-.372,1.408,0,2.64a7.244,7.244,0,0,0,1.194,2.225s2.244.987,2.747,0,.754-2.615,2.263-4.085a4.1,4.1,0,0,0,1.527-2.621,6.475,6.475,0,0,0-.5-3.124,7.121,7.121,0,0,0,2.6,0l3.131,2.791v-3.916l-1.256-3.556-.837-1.938-.821-1.4" transform="translate(47.102 -705.56)" fill="#e9edf2"/>
</svg>
