<svg id="IconSmall-Profile" xmlns="http://www.w3.org/2000/svg" width="54" height="54" viewBox="0 0 54 54">
  <g id="Path_53" data-name="Path 53" fill="none">
    <path d="M27,0A27,27,0,1,1,0,27,27,27,0,0,1,27,0Z" stroke="none"/>
    <path d="M 27 1 C 23.48958015441895 1 20.08470153808594 1.687301635742188 16.87992858886719 3.042800903320312 C 13.78398895263672 4.352268218994141 11.00334167480469 6.22711181640625 8.615219116210938 8.615219116210938 C 6.22711181640625 11.00334167480469 4.352268218994141 13.78398895263672 3.042800903320312 16.87992858886719 C 1.687301635742188 20.08470153808594 1 23.48958015441895 1 27 C 1 30.51041984558105 1.687301635742188 33.91529846191406 3.042800903320312 37.12007141113281 C 4.352268218994141 40.21601104736328 6.22711181640625 42.99665832519531 8.615219116210938 45.38478088378906 C 11.00334167480469 47.77288818359375 13.78398895263672 49.64772796630859 16.87992858886719 50.95719909667969 C 20.08470153808594 52.31269836425781 23.48958015441895 53 27 53 C 30.51041984558105 53 33.91529846191406 52.31269836425781 37.12007141113281 50.95719909667969 C 40.21601104736328 49.64772796630859 42.99665832519531 47.77288818359375 45.38478088378906 45.38478088378906 C 47.77288818359375 42.99665832519531 49.64772796630859 40.21601104736328 50.95719909667969 37.12007141113281 C 52.31269836425781 33.91529846191406 53 30.51041984558105 53 27 C 53 23.48958015441895 52.31269836425781 20.08470153808594 50.95719909667969 16.87992858886719 C 49.64772796630859 13.78398895263672 47.77288818359375 11.00334167480469 45.38478088378906 8.615219116210938 C 42.99665832519531 6.22711181640625 40.21601104736328 4.352268218994141 37.12007141113281 3.042800903320312 C 33.91529846191406 1.687301635742188 30.51041984558105 1 27 1 M 27 0 C 41.91168975830078 0 54 12.08831024169922 54 27 C 54 41.91168975830078 41.91168975830078 54 27 54 C 12.08831024169922 54 0 41.91168975830078 0 27 C 0 12.08831024169922 12.08831024169922 0 27 0 Z" stroke="none" fill="#e9edf2"/>
  </g>
  <g id="Group_28" data-name="Group 28">
    <g id="Union_3" data-name="Union 3" transform="translate(-76 1662)" fill="none">
      <path d="M94-1622a3,3,0,0,1-3-3v-1a8,8,0,0,1,8-8h8a8,8,0,0,1,8,8v1a3,3,0,0,1-3,3Zm3-21a6,6,0,0,1,6-6,6,6,0,0,1,6,6,6,6,0,0,1-6,6A6,6,0,0,1,97-1643Z" stroke="none"/>
      <path d="M 111.9996032714844 -1623.999877929688 C 112.5513305664062 -1623.999877929688 113.0002059936523 -1624.44873046875 113.0002059936523 -1625.00048828125 L 113.0002059936523 -1626.000366210938 C 113.0002059936523 -1629.308837890625 110.3085708618164 -1632.00048828125 107.0001068115234 -1632.00048828125 L 99 -1632.00048828125 C 95.69153594970703 -1632.00048828125 92.99990081787109 -1629.308837890625 92.99990081787109 -1626.000366210938 L 92.99990081787109 -1625.00048828125 C 92.99990081787109 -1624.44873046875 93.4483642578125 -1623.999877929688 93.99960327148438 -1623.999877929688 L 111.9996032714844 -1623.999877929688 M 102.9996032714844 -1639.000122070312 C 105.2053756713867 -1639.000122070312 106.9999008178711 -1640.794677734375 106.9999008178711 -1643.00048828125 C 106.9999008178711 -1645.205810546875 105.2053756713867 -1646.999877929688 102.9996032714844 -1646.999877929688 C 100.7943267822266 -1646.999877929688 99.00020599365234 -1645.205810546875 99.00020599365234 -1643.00048828125 C 99.00020599365234 -1640.794677734375 100.7943267822266 -1639.000122070312 102.9996032714844 -1639.000122070312 M 111.9996032714844 -1621.999877929688 L 93.99960327148438 -1621.999877929688 C 92.34270477294922 -1621.999877929688 90.99990081787109 -1623.343505859375 90.99990081787109 -1625.00048828125 L 90.99990081787109 -1626.000366210938 C 90.99990081787109 -1630.41845703125 94.58190155029297 -1634.00048828125 99 -1634.00048828125 L 107.0001068115234 -1634.00048828125 C 111.4182052612305 -1634.00048828125 115.0002059936523 -1630.41845703125 115.0002059936523 -1626.000366210938 L 115.0002059936523 -1625.00048828125 C 115.0002059936523 -1623.343505859375 113.6565017700195 -1621.999877929688 111.9996032714844 -1621.999877929688 Z M 102.9996032714844 -1637.000122070312 C 99.68670654296875 -1637.000122070312 97.00020599365234 -1639.686645507812 97.00020599365234 -1643.00048828125 C 97.00020599365234 -1646.313354492188 99.68670654296875 -1648.999877929688 102.9996032714844 -1648.999877929688 C 106.3134002685547 -1648.999877929688 108.9999008178711 -1646.313354492188 108.9999008178711 -1643.00048828125 C 108.9999008178711 -1639.686645507812 106.3134002685547 -1637.000122070312 102.9996032714844 -1637.000122070312 Z" stroke="none" fill="#e9edf2"/>
    </g>
    <g id="Group_27" data-name="Group 27">
      <line id="Line_31" data-name="Line 31" x1="3" transform="translate(17 35)" fill="none" stroke="#e9edf2" stroke-linecap="round" stroke-width="0.25"/>
      <line id="Line_33" data-name="Line 33" x1="3" transform="translate(17.25 34)" fill="none" stroke="#e9edf2" stroke-linecap="round" stroke-width="0.25"/>
      <line id="Line_34" data-name="Line 34" x1="3" transform="translate(17.75 33)" fill="none" stroke="#e9edf2" stroke-linecap="round" stroke-width="0.25"/>
      <line id="Line_35" data-name="Line 35" x1="3" transform="translate(18.5 32)" fill="none" stroke="#e9edf2" stroke-linecap="round" stroke-width="0.25"/>
      <line id="Line_36" data-name="Line 36" x1="3" transform="translate(19.5 31)" fill="none" stroke="#e9edf2" stroke-linecap="round" stroke-width="0.25"/>
      <line id="Line_37" data-name="Line 37" x1="3" transform="translate(17 36)" fill="none" stroke="#e9edf2" stroke-linecap="round" stroke-width="0.25"/>
      <line id="Line_38" data-name="Line 38" x1="3" transform="translate(17 37)" fill="none" stroke="#e9edf2" stroke-linecap="round" stroke-width="0.25"/>
    </g>
  </g>
</svg>
