<svg xmlns="http://www.w3.org/2000/svg" xmlns:xlink="http://www.w3.org/1999/xlink" width="48" height="62" viewBox="0 0 48 62">
  <defs>
    <filter id="Exclusion_1" x="0" y="0" width="48" height="62" filterUnits="userSpaceOnUse">
      <feOffset dy="3" input="SourceAlpha"/>
      <feGaussianBlur stdDeviation="3" result="blur"/>
      <feFlood flood-opacity="0.161"/>
      <feComposite operator="in" in2="blur"/>
      <feComposite in="SourceGraphic"/>
    </filter>
  </defs>
  <g id="Location_Pin" data-name="Location Pin" transform="translate(9 6)">
    <g transform="matrix(1, 0, 0, 1, -9, -6)" filter="url(#Exclusion_1)">
      <g id="Exclusion_1-2" data-name="Exclusion 1" transform="translate(9 6)" fill="#e6b449">
        <path d="M 14.99970436096191 43.13749313354492 C 13.92736625671387 41.61905288696289 10.89175891876221 37.25017166137695 7.928069114685059 32.33327102661133 C 5.760889053344727 28.73782920837402 4.035308837890625 25.52935981750488 2.799248933792114 22.79698944091797 C 1.273579001426697 19.4244499206543 0.4999990463256836 16.79401016235352 0.4999990463256836 14.97873020172119 C 0.4999990463256836 11.11137008666992 2.008149147033691 7.475510120391846 4.74661922454834 4.740920066833496 C 7.485249042510986 2.006119966506958 11.1265287399292 0.5 14.99968910217285 0.5 C 18.87311935424805 0.5 22.51458930969238 2.006119966506958 25.25329971313477 4.740930080413818 C 27.99182891845703 7.475480079650879 29.5 11.1113395690918 29.5 14.97873020172119 C 29.5 16.79398918151855 28.72638893127441 19.42443084716797 27.20064926147461 22.7969799041748 C 25.96445846557617 25.52952003479004 24.23879814147949 28.73798942565918 22.07161903381348 32.33327102661133 C 19.10756301879883 37.25060272216797 16.07237434387207 41.61867904663086 14.99970436096191 43.13749313354492 Z M 15.21322917938232 7.457149982452393 C 11.06027889251709 7.457149982452393 7.681599140167236 10.83131980895996 7.681599140167236 14.97873020172119 C 7.681599140167236 19.12579917907715 11.06027889251709 22.49968910217285 15.21322917938232 22.49968910217285 C 19.36585998535156 22.49968910217285 22.7442684173584 19.12579917907715 22.7442684173584 14.97873020172119 C 22.7442684173584 10.83131980895996 19.36585998535156 7.457149982452393 15.21322917938232 7.457149982452393 Z" stroke="none"/>
        <path d="M 14.99971675872803 42.26768112182617 C 16.30726051330566 40.39701080322266 19.00328636169434 36.45505905151367 21.64339828491211 32.07514190673828 C 23.80049896240234 28.4965991973877 25.51695823669434 25.30562973022461 26.74509811401367 22.59089088439941 C 28.2413387298584 19.28354072570801 29 16.72244071960449 29 14.97873020172119 C 29 11.24503040313721 27.5439281463623 7.734829902648926 24.89999961853027 5.094729900360107 C 22.25569915771484 2.454200029373169 18.73969841003418 1 14.99968910217285 1 C 11.25994873046875 1 7.744149208068848 2.454200029373169 5.099918842315674 5.094729900360107 C 2.456048965454102 7.73484992980957 0.9999990463256836 11.24505996704102 0.9999990463256836 14.97873020172119 C 0.9999990463256836 16.72245025634766 1.758629083633423 19.28355979919434 3.254809141159058 22.59090995788574 C 4.482819080352783 25.30547904968262 6.199199199676514 28.49644088745117 8.356288909912109 32.07514953613281 C 10.9961051940918 36.45473098754883 13.69250106811523 40.39737319946289 14.99971675872803 42.26768112182617 M 15.21322917938232 6.957149982452393 C 19.64155960083008 6.957149982452393 23.2442684173584 10.55562019348145 23.2442684173584 14.97873020172119 C 23.2442684173584 19.4015007019043 19.64155960083008 22.99968910217285 15.21322917938232 22.99968910217285 C 10.78456878662109 22.99968910217285 7.181599140167236 19.4015007019043 7.181599140167236 14.97873020172119 C 7.181599140167236 10.55562019348145 10.78456878662109 6.957149982452393 15.21322917938232 6.957149982452393 M 14.99968910217285 44 L 14.99913883209229 43.99924087524414 C 14.96143913269043 43.94699859619141 11.18564891815186 38.70632171630859 7.499838829040527 32.59138107299805 C 5.322588920593262 28.97921943664551 3.587809085845947 25.75324058532715 2.343698978424072 23.00307083129883 C 0.7885290384292603 19.56533050537109 -9.5367431640625e-07 16.86554908752441 -9.5367431640625e-07 14.97873020172119 C -9.5367431640625e-07 10.97770023345947 1.56023907661438 7.216179847717285 4.393319129943848 4.387119770050049 C 7.226358890533447 1.558040022850037 10.99310874938965 -3.552713678800501e-15 14.99968910217285 -3.552713678800501e-15 C 19.00653839111328 -3.552713678800501e-15 22.77347946166992 1.558040022850037 25.60659980773926 4.387119770050049 C 28.43972969055176 7.216139793395996 30 10.97766017913818 30 14.97873020172119 C 30 16.86556053161621 29.21142959594727 19.56533050537109 27.65619850158691 23.00307083129883 C 26.41200828552246 25.7532901763916 24.67716979980469 28.97928047180176 22.49983978271484 32.59138870239258 C 18.81465911865234 38.70505905151367 15.03795909881592 43.94699096679688 15.00024890899658 43.99924087524414 L 14.99968910217285 44 Z M 15.21322917938232 7.957149982452393 C 11.33597946166992 7.957149982452393 8.181598663330078 11.10700988769531 8.181598663330078 14.97873020172119 C 8.181598663330078 18.85009956359863 11.33597946166992 21.99968910217285 15.21322917938232 21.99968910217285 C 19.09015846252441 21.99968910217285 22.2442684173584 18.85009956359863 22.2442684173584 14.97873020172119 C 22.2442684173584 11.10700988769531 19.09015846252441 7.957149982452393 15.21322917938232 7.957149982452393 Z" stroke="none" fill="#010f2b"/>
      </g>
    </g>
  </g>
</svg>
