<svg id="Location_Pin_Selected_" data-name="Location Pin (Selected)" xmlns="http://www.w3.org/2000/svg" width="66" height="97" viewBox="0 0 66 97">
  <g id="Exclusion_2" data-name="Exclusion 2" fill="#ffb81f">
    <path d="M 32.99929809570312 95.27334594726562 C 30.71363258361816 92.03369140625 23.95506477355957 82.30355834960938 17.3565731048584 71.333740234375 C 12.58674621582031 63.40400314331055 8.788573265075684 56.32717895507812 6.067560195922852 50.29985809326172 C 2.704973220825195 42.85139083862305 1 37.03802871704102 1 33.02128219604492 C 1 24.46780395507812 4.32859992980957 16.42642974853516 10.37262630462646 10.37848377227783 C 16.41640090942383 4.330670356750488 24.45203971862793 1.000003814697266 32.99930572509766 1.000003814697266 C 41.547119140625 1.000003814697266 49.58318710327148 4.330683708190918 55.62714767456055 10.37848377227783 C 61.67133331298828 16.42630958557129 65 24.46767044067383 65 33.02128219604492 C 65 37.0379638671875 63.294921875 42.85131072998047 59.93214797973633 50.29984283447266 C 57.210693359375 56.3278694152832 53.41238784790039 63.40469741821289 48.64271926879883 71.33374786376953 C 42.04744338989258 82.29783630371094 35.28562927246094 92.03265380859375 32.99929809570312 95.27334594726562 Z M 33.4691047668457 16.54189682006836 C 24.38773345947266 16.54189682006836 16.99949264526367 23.93452453613281 16.99949264526367 33.02128219604492 C 16.99949264526367 42.1073112487793 24.38773345947266 49.49933624267578 33.4691047668457 49.49933624267578 C 42.54973220825195 49.49933624267578 49.93737411499023 42.1073112487793 49.93737411499023 33.02128219604492 C 49.93737411499023 23.93452453613281 42.54973220825195 16.54189682006836 33.4691047668457 16.54189682006836 Z" stroke="none"/>
    <path d="M 32.99938201904297 93.53298950195312 C 35.81217956542969 89.50748443603516 41.86253356933594 80.66523742675781 47.78581619262695 70.81829071044922 C 52.53536987304688 62.92264556884766 56.31534194946289 55.88080215454102 59.02071380615234 49.88837432861328 C 60.68510055541992 46.20178985595703 61.95149993896484 42.88309097290039 62.78475570678711 40.02445983886719 C 63.59112930297852 37.25809097290039 64 34.90187454223633 64 33.02128982543945 C 64 24.73467445373535 60.77527236938477 16.94436073303223 54.91983032226562 11.08537483215332 C 49.06475830078125 5.226575374603271 41.27989959716797 2.000003814697266 32.99929809570312 2.000003814697266 C 24.71927070617676 2.000003814697266 16.93484306335449 5.226575374603271 11.07997131347656 11.08536052703857 C 5.22465705871582 16.9444465637207 2 24.73478889465332 2 33.02128982543945 C 2 34.90190505981445 2.408842802047729 37.25811767578125 3.215157032012939 40.02449035644531 C 4.048371315002441 42.88314819335938 5.314700126647949 46.20184707641602 6.978985786437988 49.88840484619141 C 9.684028625488281 55.88031768798828 13.46387100219727 62.92214584350586 18.21349906921387 70.81829071044922 C 24.13550567626953 80.66347503662109 30.18650054931641 89.50710296630859 32.99938201904297 93.53298950195312 M 33.46911239624023 15.54188919067383 C 43.10114288330078 15.54188919067383 50.93737030029297 23.38311767578125 50.93737030029297 33.02128982543945 C 50.93737030029297 42.65871810913086 43.10114288330078 50.49933242797852 33.46911239624023 50.49933242797852 C 23.83634376525879 50.49933242797852 15.9995002746582 42.65871810913086 15.9995002746582 33.02128982543945 C 15.9995002746582 23.38311767578125 23.83634376525879 15.54188919067383 33.46911239624023 15.54188919067383 M 32.99929809570312 97 L 32.99808502197266 96.998291015625 C 32.9151725769043 96.88316345214844 24.60842895507812 85.32981872558594 16.49965667724609 71.84918975830078 C 11.7096996307373 63.88600540161133 7.893199920654297 56.77417373657227 5.156128406524658 50.71133422851562 C 1.734771370887756 43.13264846801758 0 37.18087387084961 0 33.02128982543945 C 0 24.20081901550293 3.432528495788574 15.90840339660645 9.665300369262695 9.671604156494141 C 15.89797115325928 3.434761047363281 24.18482780456543 3.814697265625e-06 32.99929809570312 3.814697265625e-06 C 41.8143424987793 3.814697265625e-06 50.10160064697266 3.434761047363281 56.3344841003418 9.671604156494141 C 62.56742858886719 15.90831851959229 66 24.20073318481445 66 33.02128982543945 C 66 37.18088912963867 64.26508331298828 43.13264846801758 60.84355545043945 50.71133422851562 C 58.10634231567383 56.77428817749023 54.28975677490234 63.88614654541016 49.49962997436523 71.84922027587891 C 41.39222717285156 85.32707214355469 33.0834846496582 96.88313293457031 33.00054168701172 96.998291015625 L 32.99929809570312 97 Z M 33.46911239624023 17.54188919067383 C 24.93912887573242 17.54188919067383 17.9995002746582 24.48591804504395 17.9995002746582 33.02128982543945 C 17.9995002746582 41.55588912963867 24.93912887573242 48.49933242797852 33.46911239624023 48.49933242797852 C 41.99835586547852 48.49933242797852 48.93737030029297 41.55588912963867 48.93737030029297 33.02128982543945 C 48.93737030029297 24.48591804504395 41.99835586547852 17.54188919067383 33.46911239624023 17.54188919067383 Z" stroke="none" fill="#010f2b"/>
  </g>
</svg>
